
<svg xmlns="http://www.w3.org/2000/svg">

  <symbol id="location" viewBox="0 0 16 16">
    <path fill="#101828" d="M11.53 8.381c-.49.996-1.156 1.988-1.837 2.878a30 30 0 0 1-2.068 2.41 30 30 0 0 1-2.068-2.41c-.68-.89-1.346-1.882-1.838-2.878-.496-1.006-.781-1.948-.781-2.756a4.687 4.687 0 1 1 9.375 0c0 .808-.286 1.75-.782 2.756M7.626 15s5.625-5.33 5.625-9.375a5.625 5.625 0 1 0-11.25 0C2 9.669 7.625 15 7.625 15" />
    <path fill="#101828" d="M2.5 4a.5.5 0 0 1 .5-.5h10a.5.5 0 0 1 .5.5v1a.5.5 0 0 1-.5.5H3a.5.5 0 0 1-.5-.5zM11 7.5a.5.5 0 0 1 .5-.5h1a.5.5 0 0 1 .5.5v1a.5.5 0 0 1-.5.5h-1a.5.5 0 0 1-.5-.5zm-3 0a.5.5 0 0 1 .5-.5h1a.5.5 0 0 1 .5.5v1a.5.5 0 0 1-.5.5h-1a.5.5 0 0 1-.5-.5zm-5 3a.5.5 0 0 1 .5-.5h1a.5.5 0 0 1 .5.5v1a.5.5 0 0 1-.5.5h-1a.5.5 0 0 1-.5-.5zm3 0a.5.5 0 0 1 .5-.5h1a.5.5 0 0 1 .5.5v1a.5.5 0 0 1-.5.5h-1a.5.5 0 0 1-.5-.5z" />
  </symbol>

  <symbol id="group" viewBox="0 0 16 16">
    <path fill="#101828" d="M8 15A7 7 0 1 1 8 1a7 7 0 0 1 0 14m0 1A8 8 0 1 0 8-.001 8 8 0 0 0 8 16" />
    <path fill="#101828" d="m10.97 4.97-.02.022-3.473 4.425-2.093-2.094a.75.75 0 0 0-1.06 1.06L6.97 11.03a.75.75 0 0 0 1.08-.02l3.991-4.99a.75.75 0 0 0-1.07-1.05" />
  </symbol>

  <symbol id="calendar" viewBox="0 0 16 16">
    <path fill="#101828" d="M3.5 0a.5.5 0 0 1 .5.5V1h8V.5a.5.5 0 0 1 1 0V1h1a2 2 0 0 1 2 2v11a2 2 0 0 1-2 2H2a2 2 0 0 1-2-2V3a2 2 0 0 1 2-2h1V.5a.5.5 0 0 1 .5-.5M2 2a1 1 0 0 0-1 1v11a1 1 0 0 0 1 1h12a1 1 0 0 0 1-1V3a1 1 0 0 0-1-1z" />
    <path fill="#101828" d="M2.5 4a.5.5 0 0 1 .5-.5h10a.5.5 0 0 1 .5.5v1a.5.5 0 0 1-.5.5H3a.5.5 0 0 1-.5-.5zM11 7.5a.5.5 0 0 1 .5-.5h1a.5.5 0 0 1 .5.5v1a.5.5 0 0 1-.5.5h-1a.5.5 0 0 1-.5-.5zm-3 0a.5.5 0 0 1 .5-.5h1a.5.5 0 0 1 .5.5v1a.5.5 0 0 1-.5.5h-1a.5.5 0 0 1-.5-.5zm-5 3a.5.5 0 0 1 .5-.5h1a.5.5 0 0 1 .5.5v1a.5.5 0 0 1-.5.5h-1a.5.5 0 0 1-.5-.5zm3 0a.5.5 0 0 1 .5-.5h1a.5.5 0 0 1 .5.5v1a.5.5 0 0 1-.5.5h-1a.5.5 0 0 1-.5-.5z" />
  </symbol>


  <symbol id="car" viewBox="0 0 16 16">
    <path fill="#101828" d="M4 9a1 1 0 1 1-2 0 1 1 0 0 1 2 0m10 0a1 1 0 1 1-2 0 1 1 0 0 1 2 0M6 8a1 1 0 0 0 0 2h4a1 1 0 1 0 0-2zM4.862 4.276 3.906 6.19a.51.51 0 0 0 .497.731c.91-.073 2.35-.17 3.597-.17s2.688.097 3.597.17a.51.51 0 0 0 .497-.731l-.956-1.913A.5.5 0 0 0 10.691 4H5.309a.5.5 0 0 0-.447.276" />
    <path fill="#101828" d="M2.52 3.515A2.5 2.5 0 0 1 4.82 2h6.362c1 0 1.904.596 2.298 1.515l.792 1.848c.075.175.21.319.38.404.5.25.855.715.965 1.262l.335 1.679q.05.242.049.49v.413c0 .814-.39 1.543-1 1.997V13.5a.5.5 0 0 1-.5.5h-2a.5.5 0 0 1-.5-.5v-1.338c-1.292.048-2.745.088-4 .088s-2.708-.04-4-.088V13.5a.5.5 0 0 1-.5.5h-2a.5.5 0 0 1-.5-.5v-1.892c-.61-.454-1-1.183-1-1.997v-.413a2.5 2.5 0 0 1 .049-.49l.335-1.68c.11-.546.465-1.012.964-1.261a.8.8 0 0 0 .381-.404l.792-1.848zM4.82 3a1.5 1.5 0 0 0-1.379.91l-.792 1.847a1.8 1.8 0 0 1-.853.904.8.8 0 0 0-.43.564L1.03 8.904Q1 9.05 1 9.198v.413c0 .796.62 1.448 1.408 1.484 1.555.07 3.786.155 5.592.155s4.037-.084 5.592-.155A1.48 1.48 0 0 0 15 9.611v-.413q0-.148-.03-.294l-.335-1.68a.8.8 0 0 0-.43-.563 1.8 1.8 0 0 1-.853-.904l-.792-1.848A1.5 1.5 0 0 0 11.18 3z" />
  </symbol>

  <symbol id="gasoline" viewBox="0 0 16 16">
    <path fill="#101828" d="M3 2.5a.5.5 0 0 1 .5-.5h5a.5.5 0 0 1 .5.5v5a.5.5 0 0 1-.5.5h-5a.5.5 0 0 1-.5-.5z" />
    <path fill="#101828" d="M1 2a2 2 0 0 1 2-2h6a2 2 0 0 1 2 2v8a2 2 0 0 1 2 2v.5a.5.5 0 0 0 1 0V8h-.5a.5.5 0 0 1-.5-.5V4.375a.5.5 0 0 1 .5-.5h1.495c-.011-.476-.053-.894-.201-1.222a.97.97 0 0 0-.394-.458c-.184-.11-.464-.195-.9-.195a.5.5 0 0 1 0-1q.846-.002 1.412.336c.383.228.634.551.794.907.295.655.294 1.465.294 2.081v3.175a.5.5 0 0 1-.5.501H15v4.5a1.5 1.5 0 1 1-3 0V12a1 1 0 0 0-1-1v4h.5a.5.5 0 0 1 0 1H.5a.5.5 0 0 1 0-1H1zm9 0a1 1 0 0 0-1-1H3a1 1 0 0 0-1 1v13h8z" />
  </symbol>

  <symbol id="gear" viewBox="0 0 16 16">
    <path fill="#101828" d="M8 4.754a3.246 3.246 0 1 0 0 6.492 3.246 3.246 0 0 0 0-6.492M5.756 8a2.246 2.246 0 1 1 4.492 0 2.246 2.246 0 0 1-4.492 0" />
    <path fill="#101828" d="M9.796 1.343c-.527-1.79-3.065-1.79-3.592 0l-.094.319a.873.873 0 0 1-1.255.52l-.292-.16c-1.64-.892-3.433.902-2.54 2.541l.16.292a.873.873 0 0 1-.52 1.255l-.32.094c-1.79.527-1.79 3.065 0 3.592l.32.094a.873.873 0 0 1 .52 1.255l-.16.292c-.893 1.64.9 3.434 2.54 2.54l.292-.159a.873.873 0 0 1 1.255.52l.094.319c.527 1.79 3.065 1.79 3.592 0l.094-.319a.873.873 0 0 1 1.255-.52l.293.16c1.64.893 3.433-.902 2.54-2.541l-.16-.292a.873.873 0 0 1 .52-1.255l.32-.094c1.79-.527 1.79-3.065 0-3.592l-.32-.094a.873.873 0 0 1-.52-1.255l.16-.292c.893-1.64-.902-3.433-2.54-2.54l-.293.159a.873.873 0 0 1-1.255-.52zm-2.633.283c.246-.835 1.428-.835 1.674 0l.094.319a1.873 1.873 0 0 0 2.694 1.115l.29-.16c.765-.415 1.6.42 1.185 1.185l-.16.292a1.874 1.874 0 0 0 1.117 2.692l.317.094c.835.246.835 1.428 0 1.674l-.319.094a1.873 1.873 0 0 0-1.114 2.693l.16.291c.414.764-.42 1.6-1.186 1.184l-.29-.159a1.872 1.872 0 0 0-2.694 1.116l-.094.318c-.246.835-1.428.835-1.674 0l-.094-.319a1.873 1.873 0 0 0-2.692-1.115l-.292.16c-.764.415-1.6-.42-1.184-1.185l.16-.291A1.873 1.873 0 0 0 1.944 8.93l-.319-.094c-.835-.246-.835-1.428 0-1.674l.32-.094A1.873 1.873 0 0 0 3.06 4.377l-.16-.292c-.415-.764.42-1.6 1.185-1.184l.292.159A1.873 1.873 0 0 0 7.07 1.945z" />
  </symbol>

  <symbol id="up" viewBox="0 0 16 16">
    <path d="M1.147 4.147a.5.5 0 0 1 .708 0L7.5 9.794l5.646-5.647a.501.501 0 0 1 .708.708l-6 6a.5.5 0 0 1-.708 0l-6-6a.5.5 0 0 1 0-.708"/>
  </symbol>

  <symbol id="chevron-down" viewBox="0 0 16 16">
    <path d="M7.147 4.147a.5.5 0 0 1 .708 0l6 6a.5.5 0 1 1-.708.708L7.5 5.208l-5.646 5.647a.5.5 0 0 1-.708-.708z"/>
  </symbol>

  <symbol id="liked" viewBox="0 0 16 16">
    <path  d="M8 1.314C12.438-3.248 23.534 4.735 8 15-7.534 4.736 3.562-3.248 8 1.314z"/>
  </symbol>
</svg>

